<?xml version="1.0" standalone="no"?>
<!DOCTYPE svg PUBLIC "-//W3C//DTD SVG 20010904//EN"
 "http://www.w3.org/TR/2001/REC-SVG-20010904/DTD/svg10.dtd">
<svg version="1.0" xmlns="http://www.w3.org/2000/svg"
 width="410.000000pt" height="410.000000pt" viewBox="0 0 410.000000 410.000000"
 preserveAspectRatio="xMidYMid meet">
<metadata>
Created by potrace 1.11, written by Peter Selinger 2001-2013
</metadata>
<g transform="translate(0.000000,410.000000) scale(0.100000,-0.100000)"
fill="#000000" stroke="none">
<path d="M0 3697 l0 -403 133 4 c198 6 351 -28 552 -122 252 -119 505 -315
868 -675 l177 -176 93 93 92 92 7 193 c3 105 10 292 14 415 4 122 11 225 16
228 4 3 8 50 8 105 l0 100 28 -3 c24 -3 28 -9 34 -48 12 -68 44 -321 57 -440
15 -132 28 -204 47 -255 27 -70 30 -70 103 -6 304 266 602 430 865 476 297 51
610 -24 906 -220 47 -31 88 -59 93 -61 4 -3 7 245 7 550 l0 556 -2050 0 -2050
0 0 -403z"/>
<path d="M27 3183 l-27 -4 0 -540 0 -540 32 -60 c58 -107 80 -101 150 40 24
47 46 88 50 89 5 2 8 233 8 513 l0 509 -92 -1 c-51 -1 -105 -4 -121 -6z"/>
<path d="M280 2707 l0 -476 46 24 c26 14 53 25 59 25 7 0 18 6 24 14 13 15 87
29 176 33 132 6 211 5 233 -2 l22 -7 0 321 0 321 -42 27 c-142 89 -349 174
-465 189 l-53 7 0 -476z"/>
<path d="M1997 3095 c-4 -49 -10 -186 -14 -303 -5 -180 -4 -212 8 -207 8 3 41
33 74 66 l60 60 -22 18 c-13 11 -23 26 -23 35 0 8 -4 18 -10 21 -5 3 -10 19
-10 36 0 16 -4 37 -9 47 -5 9 -17 78 -26 152 -9 74 -18 142 -19 150 -1 8 -5
-25 -9 -75z"/>
<path d="M3106 3164 c-104 -20 -190 -51 -313 -111 l-113 -55 0 -167 c0 -145 2
-170 18 -187 17 -20 22 -29 64 -103 27 -47 80 -154 106 -211 11 -25 29 -65 40
-90 11 -25 34 -80 52 -122 37 -91 54 -98 97 -40 15 20 38 48 51 62 13 14 30
38 38 53 8 15 33 44 55 64 l39 35 0 444 0 444 -32 -1 c-18 0 -64 -7 -102 -15z"/>
<path d="M3280 2746 c0 -433 0 -436 20 -436 12 0 33 6 48 14 15 7 52 16 82 20
30 4 71 12 91 18 30 8 41 7 63 -7 20 -13 35 -15 63 -9 21 4 45 7 53 6 8 -2 43
-6 78 -10 l62 -8 0 346 0 346 -57 28 c-146 72 -287 114 -419 123 l-84 6 0
-437z"/>
<path d="M3880 2637 l0 -363 76 -90 c85 -99 96 -108 124 -99 19 6 20 16 20
390 l0 383 -87 59 c-49 33 -98 65 -110 72 l-23 12 0 -364z"/>
<path d="M2534 2897 c-111 -80 -213 -159 -213 -167 -1 -3 20 -12 46 -20 42
-12 52 -12 93 4 71 28 86 29 135 13 l45 -16 0 130 c0 71 -1 129 -2 129 -2 0
-48 -33 -104 -73z"/>
<path d="M880 2626 l0 -305 45 -22 c52 -26 69 -41 95 -86 11 -18 34 -39 52
-49 18 -9 50 -33 71 -52 l38 -37 47 25 c73 38 165 100 189 129 21 23 23 37 23
128 l0 101 -112 106 c-155 143 -366 318 -435 360 -10 6 -13 -56 -13 -298z"/>
<path d="M2495 2670 c-25 -16 -46 -19 -140 -18 -61 1 -119 -3 -127 -8 -9 -5
-46 -35 -82 -67 l-66 -58 0 -269 0 -269 108 -97 c129 -118 277 -237 378 -305
l74 -50 0 555 0 555 -37 26 c-45 30 -68 31 -108 5z"/>
<path d="M2680 2038 l0 -536 113 -55 c155 -77 321 -127 417 -127 l30 0 0 450
c0 248 -2 450 -4 450 -2 0 -20 -24 -40 -52 -101 -145 -136 -177 -194 -178 -41
0 -74 33 -91 92 -7 24 -28 75 -46 113 -18 39 -36 81 -40 94 -8 28 -99 210
-127 256 -17 29 -18 16 -18 -507z"/>
<path d="M2003 2438 l-32 -33 -2 -156 -3 -157 34 -32 35 -33 3 112 c1 61 1
161 0 222 l-3 110 -32 -33z"/>
<path d="M1480 2352 c0 -56 2 -62 21 -62 12 0 34 -11 51 -25 29 -24 81 -34 92
-17 4 8 -82 97 -141 146 l-23 19 0 -61z"/>
<path d="M1858 2299 c-21 -23 -38 -46 -38 -53 0 -13 71 -86 83 -86 4 0 7 41 7
90 0 50 -3 90 -7 89 -5 0 -25 -18 -45 -40z"/>
<path d="M3441 2300 c-24 -5 -49 -14 -56 -20 -7 -6 -32 -14 -56 -18 l-44 -8
-3 -467 -2 -467 62 0 c114 0 267 42 416 112 l82 39 0 383 0 382 -29 28 c-28
27 -36 29 -128 32 -54 1 -120 5 -148 8 -27 3 -70 1 -94 -4z"/>
<path d="M515 2273 c-66 -14 -172 -61 -201 -88 l-34 -32 0 -420 0 -421 76 15
c130 24 299 95 432 179 l52 34 0 369 0 368 -152 0 c-84 0 -162 -1 -173 -4z"/>
<path d="M880 1915 c0 -339 0 -346 19 -335 64 34 390 310 499 422 42 44 43 46
40 106 l-3 60 -50 -34 c-76 -53 -181 -104 -213 -104 -20 0 -40 12 -67 41 -22
22 -55 47 -73 56 -18 9 -47 35 -64 59 -28 39 -67 74 -83 74 -3 0 -5 -155 -5
-345z"/>
<path d="M1487 2223 c-4 -3 -7 -38 -7 -77 l0 -70 55 54 54 54 -40 23 c-44 25
-52 27 -62 16z"/>
<path d="M3880 1847 c0 -191 3 -347 6 -347 7 0 105 64 167 109 l47 35 0 193 0
193 -37 0 c-43 1 -61 13 -122 90 -25 30 -48 59 -53 65 -4 5 -8 -147 -8 -338z"/>
<path d="M1650 2091 c-460 -470 -815 -731 -1134 -836 -138 -45 -228 -57 -384
-53 l-132 3 0 -602 0 -603 2050 0 2050 0 0 754 0 755 -82 -56 c-100 -66 -298
-164 -390 -192 -173 -52 -393 -67 -546 -35 -322 65 -593 232 -1040 642 l-80
72 -6 -202 c-3 -112 -8 -365 -11 -564 -3 -199 -10 -415 -15 -480 -5 -65 -10
-185 -10 -266 0 -87 -4 -148 -10 -148 -5 0 -10 -26 -12 -57 -3 -54 -5 -58 -28
-58 l-25 0 -12 155 c-7 85 -17 256 -23 380 -15 337 -27 530 -60 975 -5 72 -16
202 -25 290 -8 88 -15 163 -15 168 0 15 -16 4 -60 -42z"/>
<path d="M1773 2115 c3 -11 8 -65 11 -120 4 -55 11 -165 16 -245 6 -80 19
-287 30 -460 31 -479 32 -491 41 -450 4 19 12 289 19 599 l11 565 -66 65 c-41
41 -65 58 -62 46z"/>
<path d="M217 2023 c-30 -69 -67 -104 -116 -110 -42 -6 -47 -4 -73 28 l-28 33
0 -326 0 -325 31 -7 c17 -3 71 -6 120 -6 l89 0 0 375 c0 206 -1 375 -3 375 -2
0 -11 -17 -20 -37z"/>
</g>
</svg>
